<svg version="1" xmlns="http://www.w3.org/2000/svg" width="933.333" height="933.333" viewBox="0 0 700.000000 700.000000"><path d="M216.1 1.6c-30.3 8-44.2 44.8-27.1 71.4l4 6.1V441H78.7l-3.1-2.4c-6.3-4.7-16.3-8.4-24.7-8.9-21.6-1.5-41.2 11.2-48.4 31.3-2 5.5-2.7 16.8-1.4 23.5 2.1 11.2 10 23.1 19.5 29.4 7.6 5 14.9 7.3 24.5 7.7 11.6.4 18.8-1.5 29.4-8.2l5-3.1 56.5.1 56.5.1.3 55.3.2 55.3-2.5 3.3c-7.6 10-10.7 24.8-7.9 38.2 7.6 36.1 51.7 49.4 77.5 23.4 14.3-14.4 17.8-36.1 8.8-54.7-1.3-2.7-3.1-5.7-4.1-6.7-1-1.1-1.9-2.7-1.9-3.5-.3-3.9-.5-107.8-.1-109.1.3-1.3 20.7-1.5 179.5-1.4h179.2l5.5 3.7c13.1 8.9 32.7 10 47 2.7 10.5-5.4 19.9-16.3 23.6-27.3 2.2-6.5 2.5-18.5.8-25.2-6-22.8-29.9-38.5-52.7-34.4-10.1 1.8-15 3.7-21.3 8.5l-3.1 2.4-179.4-.2-179.4-.3-.1-180.5-.1-180.5 3.4-5.3c5.1-7.9 7.5-15.5 7.8-25.2.8-21.9-11-39.1-31.9-46.7-5.7-2.1-18.9-2.4-25.5-.7z"/></svg>