<?xml version="1.0" standalone="no"?>
<!DOCTYPE svg PUBLIC "-//W3C//DTD SVG 20010904//EN"
 "http://www.w3.org/TR/2001/REC-SVG-20010904/DTD/svg10.dtd">
<svg version="1.0" xmlns="http://www.w3.org/2000/svg"
 width="2419.000000pt" height="2419.000000pt" viewBox="0 0 2419.000000 2419.000000"
 preserveAspectRatio="xMidYMid meet">
<metadata>
Created by potrace 1.11, written by Peter Selinger 2001-2013
</metadata>
<g transform="translate(0.000000,2419.000000) scale(0.100000,-0.100000)"
fill="#000000" stroke="none">
<path d="M8109 24186 c-2 -2 -26 -6 -54 -9 -69 -8 -163 -27 -194 -39 -14 -5
-36 -12 -49 -14 -93 -18 -297 -124 -427 -223 -153 -116 -297 -288 -389 -463
-155 -298 -201 -581 -152 -938 13 -92 75 -278 128 -385 50 -101 87 -160 160
-256 l58 -76 0 -6311 0 -6312 -2027 0 -2028 1 -50 44 c-102 92 -258 189 -396
245 -68 28 -203 70 -244 75 -33 4 -118 16 -145 21 -31 5 -233 5 -275 0 -193
-24 -356 -75 -514 -160 -452 -244 -736 -713 -746 -1231 -7 -364 90 -659 310
-940 229 -293 554 -474 940 -525 64 -8 290 -6 340 4 17 3 46 9 65 12 71 12 82
15 163 40 170 53 329 142 490 273 l68 56 2025 0 2024 1 0 -2334 0 -2334 -38
-47 c-137 -164 -251 -396 -291 -592 -6 -30 -14 -65 -17 -79 -31 -151 -23 -409
20 -590 81 -345 298 -658 591 -855 133 -88 334 -178 445 -198 14 -3 43 -10 65
-16 103 -27 374 -31 495 -6 14 3 41 8 60 11 74 12 244 75 347 128 477 245 776
748 768 1291 -3 175 -22 292 -73 450 -46 143 -175 375 -254 460 -16 17 -31 39
-33 50 -3 11 -4 1064 -2 2340 l2 2320 5883 0 5883 1 22 -21 c12 -12 45 -39 72
-61 28 -21 52 -41 55 -44 10 -11 136 -87 195 -118 88 -46 325 -131 325 -117 0
3 11 0 24 -5 80 -30 405 -33 535 -5 11 3 31 7 42 10 142 31 329 108 438 181
24 16 51 34 60 39 45 28 187 154 235 208 86 98 196 256 196 282 0 8 4 16 9 20
26 16 107 233 136 364 21 99 29 174 29 296 1 102 -11 261 -19 275 -3 4 -7 25
-11 46 -16 102 -94 304 -161 419 -309 528 -899 797 -1487 679 -228 -46 -440
-149 -627 -306 l-69 -58 -5884 0 -5885 0 0 6312 0 6313 27 35 c14 19 33 42 41
50 24 24 113 169 148 240 43 85 67 151 97 257 41 145 53 251 50 411 -2 135
-13 220 -44 344 -22 86 -74 225 -103 278 -10 19 -29 53 -40 75 -22 39 -39 65
-107 161 -41 58 -174 194 -245 250 -139 111 -349 218 -499 255 -79 19 -129 30
-164 35 -36 5 -319 14 -323 10z"/>
</g>
</svg>
