<svg version="1" xmlns="http://www.w3.org/2000/svg" width="933.333" height="933.333" viewBox="0 0 700.000000 700.000000"><path d="M327.8.4c-.1.2-4.1.6-8.8 1-9.7.8-9.8.8-32.5 4.2-1.6.3-3.7.7-4.5.9-.8.2-2.6.6-4 .9-22.3 3.9-54.7 15.1-81.2 28.1-19 9.2-23.1 11.5-39.3 22.3C91 101.8 41.7 166.4 17 242c-2.8 8.7-7.5 25.6-8.5 31.1-.3 1.3-1.2 5.8-2 9.9-.8 4.1-1.7 8.9-1.9 10.5-.3 1.7-.7 4.6-1.1 6.6-2 12.2-3 28.4-3 50.4 0 19.6.6 30.9 2 41.2 1 6.7 1.4 9.9 2 14.8.4 2.7 1 6.6 1.5 8.5.5 1.9 1.2 4.8 1.4 6.5 4 22.4 14.9 54.4 27.1 79.9 23.5 48.9 59.3 93 103 126.7 51.5 39.7 117.7 65.2 183.4 70.7 16.9 1.4 61.4.6 71.3-1.3 1.2-.3 4-.7 6.3-1 58.3-8 115.5-31.9 163-67.9 24.1-18.3 48.5-42.4 65.7-65.1 24.1-31.8 42.4-66.1 54.4-101.9 3.8-11.5 9.6-32.3 10.8-38.8.2-1.3 1.1-6.1 1.9-10.8 3.9-21 5.1-35.9 5.1-61 0-18.2-1-40.4-1.8-41.9-.2-.4-.7-3.5-1-7-.4-3.6-.8-6.7-1-7-.2-.3-.7-2.9-1-5.6-2.2-16.9-10.4-45.8-19.3-68.5-20.7-52.5-57-102.9-99.8-138.5-3.3-2.8-6.8-5.8-7.9-6.7-4.8-4.3-26.1-18.9-37.9-26C500.8 32.4 468.8 19 437.2 11c-11.4-2.8-25-5.7-31.2-6.5-1.4-.2-3.8-.6-5.5-.9-1.6-.2-5.7-.7-9-1.1-3.3-.3-7.3-.8-9-1.1-3.4-.5-54.1-1.4-54.7-1zm46.7 50c10.1.9 29.4 3.4 30.3 4 .4.2 2.5.7 4.7 1 6.7 1 26.4 6.3 37 9.9 20.9 7.1 43.4 17.8 62.3 29.6 9.7 6.2 24.7 16.5 26.2 18.1.3.3 4.3 3.7 9 7.6 16.4 13.7 29.9 28 46.3 48.9 8.6 11 20.4 30.3 28.4 46.5 4.2 8.5 8 16.4 8.4 17.5 10.1 24.9 17.5 52.2 20.5 75 .3 2.7.8 5.7.9 6.5 1.7 8.8 2.3 39.6 1.2 56-4.3 61.3-26.3 117.3-65.7 167.4-4.2 5.4-19.2 21.7-25.4 27.6-23.2 22.3-50.1 41.1-77.1 54-4.9 2.3-9.8 4.7-10.8 5.1-10 5.1-42.8 15.8-55.7 18.3-1.4.3-5.9 1.2-10.1 2-4.2.8-10.5 1.8-14 2.1-3.5.4-7 .8-7.7 1.1-6.7 2.1-54 2.1-67.2 0-1.4-.3-4.7-.7-7.5-1.1-8-1-11.7-1.6-16.5-2.7-2.5-.5-5.8-1.2-7.5-1.5-6.2-1-33.3-9.2-42.5-12.8-58.5-23-107.1-61.9-141.8-113.5-16.7-24.8-31.5-56.8-39.6-85.5-2.8-10-7.1-31-8.1-39.5-.4-3-.8-5.7-1-6-1.5-2.5-2.5-44.3-1.4-56.5.4-3.9 1-10.3 1.3-14.4.4-4.1.8-7.7 1-8 .2-.3.7-3.1 1.1-6.1.3-3 1.1-7.5 1.7-10 .5-2.5 1.1-5.2 1.3-6 14.2-66.2 53.8-129.1 108-171.5 26.9-21 56.8-37.3 86.5-47.2 5.8-1.9 11.2-3.7 12-4 .8-.3 2-.7 2.5-.8.6-.2 4.4-1.2 8.5-2.3 4.1-1.1 10-2.5 13-3.1 3-.6 6.6-1.4 8-1.7 2.8-.6 4-.8 12-1.9 3-.4 6.4-.9 7.5-1.1 1-.2 6.2-.6 11.5-1 5.2-.3 9.6-.7 9.7-.8.5-.5 31.7.2 38.8.8z"/><path d="M256 102.4c-7.6 2.1-11.8 4.6-16.9 10.2-5.6 6.1-8.4 13-8.7 21.4-.2 7.9 3.3 18.6 7 21.2 1 .7 1.6 258.7.6 258.9-.3.1-18 .3-39.5.4l-39 .2-4-2.6c-7.7-5.1-12.4-6.6-21-6.5-6.5 0-9 .5-13.5 2.7-21.1 10.1-26.2 37.3-10 53.5 7.6 7.6 12.6 9.6 24 9.6 8 0 10.2-.3 14-2.3 2.5-1.3 5.2-3 6.1-3.7 1.3-1.2 8.6-1.4 42.4-1.2l40.9.3v38.8l.1 38.9-2.9 4.6c-3.7 5.9-5.3 12.2-5.1 19.2.6 22.7 23.3 38.2 44.5 30.4 20.6-7.6 28.5-31.7 16.5-49.9l-3.7-5.5-.1-38.3v-38.2l127.6-.3 127.6-.2 3.6 2.4c6.1 4.2 12.9 5.9 20.9 5.4 23.4-1.6 37.8-26 27.8-47.3-3.5-7.2-8.5-12.3-16.1-16.1-4.8-2.5-6.8-2.9-13.6-2.9-8.8 0-14.5 1.8-20.5 6.3l-3.5 2.7H415.2c-72.7 0-126.6-.4-126.9-.9-.3-.5-.6-57.9-.6-127.7V159.2l3.6-5.4c11.4-17.2 5.5-39.8-12.8-49-6.4-3.2-15.9-4.2-22.5-2.4z"/></svg>